# xmcd
#
# Track frame offsets: 
#        150
#        10421
#        18208
#        33704
#        45625
#        59154
#        75463
#        87421
#        94500
#        105426
#        114277
#
# Disc length: 1744 seconds
#
# Revision: 0
# Processed by: cddbd v1.5.2PL0 Copyright (c) Steve Scherf et al.
# Submitted via: ExactAudioCopy v0.99pb5
#
DISCID=7e06ce0b
DTITLE=Whiskey and Co - Rust Colors
DYEAR=2010
DGENRE=Country
TTITLE0=Top Poppin'
TTITLE1=Beer For...
TTITLE2=Rust Colors
TTITLE3=Road to Nowhere
TTITLE4=Walking
TTITLE5=Backward Glance
TTITLE6=In Spite of Ourselves
TTITLE7=Rest Stop
TTITLE8=Long Lonely Nights
TTITLE9=Catch My Fall
TTITLE10=Long Way Down
EXTD=
EXTT0=
EXTT1=
EXTT2=
EXTT3=
EXTT4=
EXTT5=
EXTT6=
EXTT7=
EXTT8=
EXTT9=
EXTT10=
PLAYORDER=
